<?xml version="1.0" encoding="utf-8"?>
<!-- Generator: Adobe Illustrator 27.4.0, SVG Export Plug-In . SVG Version: 6.00 Build 0)  -->
<svg version="1.2" baseProfile="tiny" id="Livello_1"
	 xmlns="http://www.w3.org/2000/svg" xmlns:xlink="http://www.w3.org/1999/xlink" x="0px" y="0px" viewBox="0 0 56.8 56.8"
	 overflow="visible" xml:space="preserve">
<g>
	<path fill="#ffffff" d="M41.7,53.9h-26c-0.5,0-1-0.2-1.3-0.6l-5.5-5.5c-0.3-0.3-0.8-0.3-1.1,0c-0.3,0.3-0.3,0.8,0,1.1l5.5,5.5
		c0.6,0.6,1.5,1,2.4,1h26c0.4,0,0.8-0.3,0.8-0.8S42.1,53.9,41.7,53.9z"/>
	<path fill="#ffffff" d="M46.1,36.2c-0.3-4.9-9.8-7.2-19-7.2c0,0,0,0,0,0c-9.2,0-18.7,2.2-19,7.2l-0.5,8.6c0,0.4,0.3,0.8,0.7,0.8
		c0.4,0,0.8-0.3,0.8-0.7l0.5-8.6c0.2-3.3,7.7-5.7,17.5-5.8c0,0,0,0,0,0c9.8,0,17.3,2.5,17.5,5.7l0.9,15c0,0.4,0.4,0.7,0.7,0.7
		c0,0,0,0,0,0c0.4,0,0.7-0.4,0.7-0.8L46.1,36.2z"/>
	<path fill="#ffffff" d="M15.6,51.6c0.4,0,0.7-0.3,0.8-0.7l0-11.3c0-0.4-0.3-0.8-0.7-0.8c0,0,0,0,0,0c-0.4,0-0.7,0.3-0.8,0.7l0,11.3
		C14.8,51.2,15.1,51.6,15.6,51.6C15.6,51.6,15.6,51.6,15.6,51.6z"/>
	<path fill="#ffffff" d="M38.1,51.6c0.4,0,0.7-0.3,0.8-0.7l0-11.3c0-0.4-0.3-0.8-0.7-0.8c0,0,0,0,0,0c-0.4,0-0.7,0.3-0.8,0.7l0,11.3
		C37.4,51.2,37.7,51.6,38.1,51.6C38.1,51.6,38.1,51.6,38.1,51.6z"/>
	<path fill="#ffffff" d="M14.6,13.8h2.1c-0.1,2.3,0.3,7.5,1.6,9.7c1.5,2.2,3.8,3.8,6.4,4.3c0.5,0.1,1,0.1,1.5,0.1c0.5,0,1,0,1.6-0.1
		c2.6-0.5,4.9-2.1,6.4-4.3l0.1-0.1c0.1-0.1,1.6-3.5,1.5-9.6h2.2c0.4,0,0.8-0.3,0.8-0.8s-0.3-0.8-0.8-0.8h-0.8
		c-0.1-3.7-1.3-6.6-3.4-8.5c-3.4-3-7.9-2.4-8-2.4c-3.2,0-5.7,1-7.5,2.9c-2.4,2.6-2.7,6.3-2.8,7.9h-0.9c-0.4,0-0.8,0.3-0.8,0.8
		S14.2,13.8,14.6,13.8z M33.1,22.7c-1.3,1.9-3.2,3.2-5.4,3.6c-0.9,0.1-1.7,0.1-2.5,0c-2.2-0.5-4.2-1.8-5.4-3.6
		c-1-1.7-1.5-6.6-1.4-8.9h16.1C34.5,19.1,33.2,22.3,33.1,22.7z M19.4,5.4c1-1,2.2-1.7,3.7-2.1c-0.9,1.2-1.8,3-1.8,5.2
		c0,0.4,0.3,0.8,0.8,0.8s0.8-0.3,0.8-0.8c0-2.7,2-4.9,2.5-5.5c0.2,0,0.4,0,0.6,0c0,0,0.7-0.1,1.7,0c0.5,0.5,2.6,2.7,2.6,5.5
		c0,0.4,0.3,0.8,0.8,0.8s0.8-0.3,0.8-0.8c0-2.1-0.9-3.9-1.8-5.1c1,0.3,2.1,0.8,3,1.6c1.8,1.6,2.8,4.1,2.9,7.3H17.1
		C17.1,10.9,17.4,7.7,19.4,5.4z"/>
</g>
</svg>
