<?xml version="1.0" encoding="utf-8"?>
<!-- Generator: Adobe Illustrator 27.4.0, SVG Export Plug-In . SVG Version: 6.00 Build 0)  -->
<svg version="1.2" baseProfile="tiny" id="Livello_1"
	 xmlns="http://www.w3.org/2000/svg" xmlns:xlink="http://www.w3.org/1999/xlink" x="0px" y="0px" viewBox="0 0 56.8 56.8"
	 overflow="visible" xml:space="preserve">
<g>
	<path fill="#ffffff" d="M48,34.7c-0.3-5.1-10.2-7.5-19.8-7.5c-9.6,0-19.5,2.3-19.8,7.5l-0.5,9c0,0.4,0.3,0.8,0.7,0.8
		c0.4,0,0.8-0.3,0.8-0.7l0.5-9c0.2-2.4,4.1-4.4,10-5.4c0,0.1-0.1,0.2-0.1,0.3v11.5h1.7l-1.1,2l5.3,6.6c0.1,0.2,0.4,0.3,0.6,0.3
		c0.2,0,0.3-0.1,0.5-0.2c0.3-0.3,0.4-0.7,0.1-1.1L22.2,43l1.8-3.4h-2.7v-10c0-0.2-0.1-0.4-0.2-0.5c0.9-0.1,1.9-0.2,2.9-0.3
		c0,0,0,0.1,0,0.1l3.9,19.8v0.9c0,0.4,0.3,0.8,0.8,0.8s0.8-0.3,0.8-0.8v-0.9l4.8-19.8c0.6,0.1,1.2,0.1,1.8,0.2
		c-0.1,0.1-0.1,0.3-0.1,0.4v10h-2.7l1.8,3.4l-4.7,5.9c-0.3,0.3-0.2,0.8,0.1,1.1c0.1,0.1,0.3,0.2,0.5,0.2c0.2,0,0.4-0.1,0.6-0.3
		l5.3-6.6l-1.1-2h1.7V29.7c0-0.1,0-0.1,0-0.2c5.5,1,9.1,2.9,9.2,5.3l1,15.6c0,0.4,0.4,0.7,0.7,0.7c0,0,0,0,0,0
		c0.4,0,0.7-0.4,0.7-0.8L48,34.7z M28.7,45.3l-3.3-16.5c0.9,0,1.8-0.1,2.8-0.1c1.5,0,3,0.1,4.5,0.2L28.7,45.3z"/>
	<path fill="#ffffff" d="M26.8,24.7L26.8,24.7c0.6,0.1,1.1,0.1,1.6,0.1c0.5,0,1.1,0,1.6-0.1c2.8-0.6,5.1-2.3,6.7-4.7
		c1.3-2.4,1.8-8.4,1.6-10.7c-0.5-5.3-5.5-7.7-9.9-7.7c0,0,0,0,0,0c-4.4,0-9.4,2.4-9.9,7.7c-0.2,2.3,0.3,8.3,1.6,10.8
		C21.6,22.5,24,24.1,26.8,24.7z M19.9,9.4C19.9,9.4,19.9,9.4,19.9,9.4c1.1,0.2,2.2,0.4,3.4,0.4c3.1,0,6.1-1,8.6-2.9
		c0.3-0.2,0.4-0.7,0.2-1c-0.2-0.3-0.7-0.4-1-0.2C27.9,8,24,8.8,20.2,7.9c1.1-3.3,4.7-4.8,8.1-4.8c3.9,0,8,1.9,8.4,6.3
		c0.2,2.3-0.3,7.9-1.4,9.8c-1.3,2.1-3.4,3.5-5.7,4c-0.9,0.2-1.8,0.2-2.7,0c-2.4-0.5-4.4-1.9-5.7-4C20.3,17.3,19.7,11.8,19.9,9.4z"/>
	<path fill="#ffffff" d="M43.6,54.2H16.2c0,0,0,0,0,0c-0.5,0-1-0.2-1.4-0.6l-5.7-5.7c-0.3-0.3-0.8-0.3-1.1,0s-0.3,0.8,0,1.1l5.7,5.7
		c0.7,0.7,1.5,1,2.5,1c0,0,0,0,0,0h27.4c0.4,0,0.8-0.3,0.8-0.8S44,54.2,43.6,54.2z"/>
	<path fill="#ffffff" d="M16.3,51.7c0.4,0,0.7-0.3,0.8-0.7l0-11.7c0-0.4-0.3-0.8-0.7-0.8c0,0,0,0,0,0c-0.4,0-0.7,0.3-0.8,0.7l0,11.7
		C15.5,51.3,15.9,51.7,16.3,51.7C16.3,51.7,16.3,51.7,16.3,51.7z"/>
	<path fill="#ffffff" d="M39.8,51.7c0.4,0,0.7-0.3,0.8-0.7l0.1-11.7c0-0.4-0.3-0.8-0.7-0.8c0,0,0,0,0,0c-0.4,0-0.7,0.3-0.8,0.7
		L39,50.9C39,51.3,39.4,51.7,39.8,51.7C39.8,51.7,39.8,51.7,39.8,51.7z"/>
</g>
</svg>
