<?xml version="1.0" encoding="utf-8" ?>
<svg baseProfile="tiny" height="100%" version="1.2" viewBox="0,0,267,154" width="100%" xmlns="http://www.w3.org/2000/svg" xmlns:ev="http://www.w3.org/2001/xml-events" xmlns:xlink="http://www.w3.org/1999/xlink"><defs /><path d="M 214,115 L 213,116 L 213,119 L 212,120 L 213,121 L 240,121 L 241,120 L 240,119 L 241,118 L 241,117 L 240,116 L 240,115 Z" fill="black" /><path d="M 42,102 L 41,103 L 41,107 L 40,108 L 41,109 L 40,110 L 40,112 L 39,113 L 30,113 L 29,114 L 29,119 L 39,119 L 40,120 L 40,121 L 41,122 L 41,128 L 40,129 L 41,130 L 41,131 L 46,131 L 47,130 L 47,121 L 49,119 L 56,119 L 57,120 L 58,119 L 58,114 L 57,113 L 48,113 L 47,112 L 47,103 L 46,102 Z" fill="black" /><path d="M 128,5 L 127,6 L 124,6 L 123,7 L 119,7 L 118,8 L 116,8 L 115,9 L 113,9 L 112,10 L 110,10 L 109,11 L 108,11 L 107,12 L 105,12 L 104,13 L 103,13 L 101,15 L 100,15 L 99,16 L 98,16 L 96,18 L 95,18 L 92,21 L 91,21 L 81,31 L 81,32 L 78,35 L 78,36 L 76,38 L 76,39 L 74,41 L 74,42 L 73,43 L 73,44 L 72,45 L 72,46 L 71,47 L 71,49 L 70,50 L 70,51 L 69,52 L 69,55 L 68,56 L 68,57 L 67,58 L 67,61 L 66,62 L 66,67 L 65,68 L 65,71 L 64,72 L 44,72 L 44,75 L 43,76 L 43,77 L 44,78 L 44,82 L 45,83 L 64,83 L 65,84 L 65,86 L 66,87 L 66,92 L 67,93 L 67,96 L 68,97 L 68,98 L 69,99 L 69,102 L 70,103 L 70,105 L 71,106 L 71,107 L 72,108 L 72,109 L 73,110 L 73,111 L 74,112 L 74,113 L 76,115 L 76,116 L 78,118 L 78,119 L 80,121 L 80,122 L 92,134 L 93,134 L 96,137 L 97,137 L 98,138 L 99,138 L 101,140 L 102,140 L 103,141 L 104,141 L 105,142 L 106,142 L 107,143 L 108,143 L 109,144 L 112,144 L 113,145 L 114,145 L 115,146 L 117,146 L 118,147 L 120,147 L 121,148 L 126,148 L 127,149 L 147,149 L 148,148 L 152,148 L 153,147 L 156,147 L 157,146 L 159,146 L 160,145 L 161,145 L 162,144 L 164,144 L 165,143 L 167,143 L 168,142 L 169,142 L 170,141 L 171,141 L 174,138 L 176,138 L 179,135 L 180,135 L 183,132 L 184,132 L 191,125 L 191,124 L 195,120 L 195,119 L 197,117 L 197,116 L 198,115 L 198,114 L 200,112 L 200,111 L 201,110 L 201,109 L 202,108 L 202,107 L 203,106 L 203,104 L 204,103 L 204,101 L 205,100 L 205,99 L 206,98 L 206,95 L 207,94 L 207,90 L 208,89 L 208,85 L 210,83 L 228,83 L 230,81 L 230,80 L 229,79 L 230,78 L 230,76 L 229,75 L 230,74 L 230,73 L 229,72 L 210,72 L 208,70 L 208,65 L 207,64 L 207,60 L 206,59 L 206,57 L 205,56 L 205,54 L 204,53 L 204,51 L 203,50 L 203,48 L 202,47 L 202,46 L 201,45 L 201,44 L 200,43 L 200,42 L 198,40 L 198,39 L 197,38 L 197,37 L 194,34 L 194,33 L 190,29 L 190,28 L 189,28 L 187,26 L 187,25 L 185,23 L 184,23 L 181,20 L 180,20 L 177,17 L 176,17 L 175,16 L 174,16 L 173,15 L 172,15 L 170,13 L 169,13 L 168,12 L 167,12 L 166,11 L 165,11 L 164,10 L 161,10 L 160,9 L 159,9 L 158,8 L 156,8 L 155,7 L 151,7 L 150,6 L 146,6 L 145,5 Z" fill="black" /></svg>